/* XPM */
static char *_920a44b370c490c833f1d06a6acfba61pxvoo0iBXvBmDtQ[] = {
/* columns rows colors chars-per-pixel */
"40 40 183 2 ",
"   c #020103",
".  c #0B0101",
"X  c #0F0905",
"o  c #02030A",
"O  c #0B0A0A",
"+  c #110A06",
"@  c #160E08",
"#  c #1A1006",
"$  c #1C130B",
"%  c #080716",
"&  c #131212",
"*  c #1A1514",
"=  c #1C1C1C",
"-  c #28080D",
";  c #29080E",
":  c #211606",
">  c #291A07",
",  c #25190A",
"<  c #2A1B0A",
"1  c #340B11",
"2  c #3F0D13",
"3  c #380B19",
"4  c #291410",
"5  c #221814",
"6  c #3B260B",
"7  c #392618",
"8  c #0B0828",
"9  c #1A1923",
"0  c #13162D",
"q  c #1D1C29",
"w  c #0D0A34",
"e  c #0E0B3B",
"r  c #101632",
"t  c #281B26",
"y  c #391327",
"u  c #212121",
"i  c #242334",
"p  c #352934",
"a  c #3E3A36",
"s  c #420C12",
"d  c #4A0D14",
"f  c #530F17",
"g  c #530F19",
"h  c #48161A",
"j  c #571017",
"k  c #53111A",
"l  c #5D121C",
"z  c #640F1B",
"x  c #63101A",
"c  c #6E121E",
"v  c #71121F",
"b  c #4C2211",
"n  c #5C1920",
"m  c #771627",
"M  c #7B1423",
"N  c #731829",
"B  c #423831",
"V  c #77373B",
"C  c #171F45",
"Z  c #1A2141",
"A  c #17234D",
"S  c #1A254C",
"D  c #1A255C",
"F  c #312B4C",
"G  c #272C5D",
"H  c #341B76",
"J  c #361B79",
"K  c #3A1E7A",
"L  c #1D2C67",
"P  c #1D306E",
"I  c #1F3273",
"U  c #252D62",
"Y  c #273061",
"T  c #23326D",
"R  c #3B237C",
"E  c #213272",
"W  c #54274E",
"Q  c #412E7E",
"!  c #43307E",
"~  c #1E536A",
"^  c #23497C",
"/  c #29597E",
"(  c #444551",
")  c #555555",
"_  c #635041",
"`  c #6C5859",
"'  c #756250",
"]  c #7F6C5D",
"[  c #625F61",
"{  c #626262",
"}  c #796A69",
"|  c #7E7877",
" . c #7F7778",
".. c #9C371D",
"X. c #861526",
"o. c #861729",
"O. c #8C1629",
"+. c #8A182A",
"@. c #833E38",
"#. c #8C7E35",
"$. c #D74F25",
"%. c #D94E25",
"&. c #D75024",
"*. c #C85433",
"=. c #D4623D",
"-. c #A03E4C",
";. c #944953",
":. c #BC5246",
">. c #8C6F57",
",. c #866D5A",
"<. c #996452",
"1. c #8C7058",
"2. c #AF6A51",
"3. c #9B5A66",
"4. c #966B6E",
"5. c #877D7A",
"6. c #BB7068",
"7. c #E5774F",
"8. c #E4784E",
"9. c #9E846F",
"0. c #AE8A72",
"q. c #BB9576",
"w. c #B79479",
"e. c #C39F7F",
"r. c #D89070",
"t. c #ED9872",
"y. c #432A83",
"u. c #532281",
"i. c #4A3486",
"p. c #4B3B81",
"a. c #6F288B",
"s. c #1F5C89",
"d. c #225B87",
"f. c #1F668B",
"g. c #226683",
"h. c #2E738F",
"j. c #216A96",
"k. c #256A95",
"l. c #24759A",
"z. c #574B87",
"x. c #5B4493",
"c. c #655C8D",
"v. c #5D6280",
"b. c #4A7883",
"n. c #6D6F82",
"m. c #756E96",
"M. c #715CA1",
"N. c #7D6BA9",
"B. c #827CA0",
"V. c #878787",
"C. c #878888",
"Z. c #898989",
"A. c #898895",
"S. c #96949D",
"D. c #ADA196",
"F. c #A5A4A3",
"G. c #AAA6A6",
"H. c #A9A8B4",
"J. c #BCBCBB",
"K. c #C29F80",
"L. c #CBA687",
"P. c #DEB28E",
"I. c #DDB392",
"U. c #E0B38E",
"Y. c #F4B38A",
"T. c #E9BB99",
"R. c #D2AFAE",
"E. c #D4B8A4",
"W. c #FEC99E",
"Q. c #EDC6A5",
"!. c #FCC9A1",
"~. c #FACAA6",
"^. c #FBD7BA",
"/. c #F8D8BB",
"(. c #A698C6",
"). c #AFA1CB",
"_. c #C7BBDB",
"`. c #FBE5D6",
"'. c #D2C9E3",
"]. c #E6DEF0",
"[. c #E1E1E1",
"{. c #FBF6FE",
"}. c #FDFDFB",
/* pixels */
"J J J J J K i.J R y.J J J J J K J J J J J H J J H J H J H H J H J H H H H J H H ",
"J J J J K K _.).].x.J J J J J J J J J J J J H J J H J H J J H J H H J H H H H J ",
"J K K J J J M.{._.K J J J J J J J J J J H J J J J H J J J J J J J H J H H H H H ",
"J K J J J J (.(.'.x.J J J J J J J J J J J H J J H J H J H H J H J J J H J H J H ",
"J J J J J J y.J J R J J J J J J J J J J J J J J J J H J J H J H H J a.u.H H H J ",
"J J J J J J J J J J K J J K H J J J J J J J J J H H J H H J J H H J a.J H J H H ",
"K J J J J J J J J J J J J J J J J J J J J J J J J H H J J H J H J H J H H H H H ",
"K J J J J J J J J J J J J J J J J J J J J J J J H J J J H J H J J H H H H H H H ",
"J J J J J y.J J J J J J J J J H J J H H H H H H J H J J J J H H H H J H J H H H ",
"J J J J J J J J J J J J J J J J J J J H H H H R J J J J H J H H H J H H H H H H ",
"J J y.J J J J J J J J J H H R = & & & & & & & & = J J R J H J H H H H J J H H H ",
"J J J J J J J J J J J J H R V.$ : # : : : $ : # $ V.p.J J J H H J H H H H H H H ",
"J J J J J J J J J J J J N.(.# > < > > > < < > > > # G.m.J H J H J H H H H H H H ",
"J J J J J J J J J J J J ).% > > > > > > > ' 1.,.1.1.B ).H H H H H H J H H H H H ",
"J J J J J J J J J J J J ).@ < < < > < 6 < I.W.W.W.!.] J.H J J H H H H H H H H H ",
"J J J J J J J J J J J J J.[ F.F.F.| ] W.~.W.W.W.W.~.,.J.H H H J J H J H H H H H ",
"J K J K J J J J R V.Z.Z.{ ) F.F.} 0.L.>.,.T.!.!.!.,.B { Z.Z.J J J J J J H H H H ",
"J J J J J J J Q S.x l x 3 a | E.2.e.Q.J.$ 9.P.T.K.R.{ s l n J.z.J R R.H H H H H ",
"J J J J J J J J | m +.X.k + 6 ~.8.t.^.}.&   w.I.% }.C.j o.N V.z.J R %.H H H H H ",
"J J J J J J J J m.& o.m s + < !.8.t.^.}.= O w.P.= }.C.1 k = B.J J R %.H H H H H ",
"J J J J J J J J Q c.& m M k O !.8.t.W.~.}.}.`./.}.~.]   Z.J J J R p.$.H H H H H ",
"J J J J J J J J J J & 1 1 -   ] *.t.W.W.^.D.5.w./.,.a   ( V.V.V.9.4.$.H H H H H ",
"J J J J J J J J J c.S t , _ w.w.=.t.W.W.w.w.q.w.w.A A A Z < , 9.q.0.&.H H H H H ",
"J J J J J J J J p.o T p 6 1.!.!.7.r.P.P.> e.P.K.i P I E Y 6 6 U.W.Y.&.H H H H H ",
"J J J J J J J J i.o P p 6 >.W.W.8...o   o 4 5 i T I I I Y 6 6 U.!.Y.$.H H H H H ",
"J J u.M.y.J J J J   T p 6 >.!.!.8.3.b.#.h.^ d.g.o I I I U 6 6 I.W.Y.$.H H H H H ",
"J J B.].y.J J J 5.N 0 * # B ] ] *.;./ b.^ I d.f.  r r r 0 # # ' ] <.&.H H H H H ",
"J J i.B.y.J y.).s O.s s s 1   ~ *.3.j.l.s.g.j.g.  2 s s d l   F.H.L.%.H H H H H ",
"H J J J J J J ).s O.z x z g o h.:.3.j.j.k.k.j./ . l x z v +.. [.H K %.H H H H H ",
"J J J J J J R J.s O.x z z g   T *.-.^ l.T T T U   l x x v +.. [.H K %.H H H H H ",
"J J J J J J ! J.s O.x z z f X A.*.6.B.6 o.V.4.N   x x x c o.. H.H H $.H H H H H ",
"H J J J J J A.] m c x x x f O Z.' @.V b b @.V h   x z x z M m  ._.H H H H H D H ",
"J H J J J ! C.l X.z z x f y S | ( W W t F W ` { A s l z x z O.s J.J J H H H H H ",
"H J J H K ! 5.x M x x k y C I I I P D e L I v.n.U r h j x x X.k G.J J H H H H H ",
"J J H J J & m M x x l - A P I P I D 8 o e L E G 7 T r 2 l z x X.l C.J H H H H H ",
"H H J H J & M M x l . 8 e e e C e 8 - l   w e e w e w 8 - z x X.l Z.J H H H H H ",
"J H H J H & m x - - = 9 0 q q q % 3 l x g * & q q q q = = - - m x Z.J H H H H G ",
"H J J J J & d h * * u u 9 t u u O f M M M 1 * u u t u u = * * k s Z.J H H H H H ",
"J J H H H &   & = = = = = = = = O f m M m 3 & = = = = = = = = O   Z.J H H H H H ",
"J H J H H &                                                       V.J H H H H H "
};
