/* XPM */
static char *_ca32f5dca654cb7cbcd3f2fd1d4b78ao50Jx2jgB1du63lP[] = {
/* columns rows colors chars-per-pixel */
"40 40 167 2 ",
"   c #000000",
".  c #04040B",
"X  c #0C0C0C",
"o  c #160809",
"O  c #0E100F",
"+  c #030614",
"@  c #040A15",
"#  c #0A0D14",
"$  c #040618",
"%  c #050A1E",
"&  c #0C0C1C",
"*  c #0C1216",
"=  c #0D1219",
"-  c #141414",
";  c #151419",
":  c #181818",
">  c #191818",
",  c #240404",
"<  c #2B0405",
"1  c #340706",
"2  c #390707",
"3  c #350508",
"4  c #390608",
"5  c #36080A",
"6  c #3D0809",
"7  c #251400",
"8  c #2D1700",
"9  c #2C1800",
"0  c #301800",
"q  c #280A14",
"w  c #380A14",
"e  c #2F1514",
"r  c #24191E",
"t  c #050C20",
"y  c #0B0D21",
"u  c #051225",
"i  c #071527",
"p  c #05132C",
"a  c #09122A",
"s  c #06182D",
"d  c #1C1929",
"f  c #071731",
"g  c #051831",
"h  c #0A1A36",
"j  c #0D1E3D",
"k  c #171D38",
"l  c #201B2B",
"z  c #360D38",
"x  c #0C203D",
"c  c #440B06",
"v  c #450A0B",
"b  c #4C0D0E",
"n  c #520B0E",
"m  c #4A100D",
"M  c #4C0D11",
"N  c #582C0C",
"B  c #5F3C16",
"V  c #663E0C",
"C  c #744A0F",
"Z  c #7F550E",
"A  c #694C19",
"S  c #4F483A",
"D  c #5F5439",
"F  c #6B5E2D",
"G  c #634F3E",
"H  c #6D5E39",
"J  c #0D1F40",
"K  c #251158",
"L  c #341B76",
"P  c #361B79",
"I  c #3A1E7A",
"U  c #3B237C",
"Y  c #3E2A7C",
"T  c #42307D",
"R  c #494949",
"E  c #655143",
"W  c #6E5041",
"Q  c #7A604D",
"!  c #756252",
"~  c #615979",
"^  c #6E6464",
"/  c #7A7878",
"(  c #81540C",
")  c #825917",
"_  c #99681C",
"`  c #AD7715",
"'  c #837034",
"]  c #AF7723",
"[  c #B07625",
"{  c #AE7831",
"}  c #B47532",
"|  c #896E5A",
" . c #87705E",
".. c #8A705C",
"X. c #80931F",
"o. c #9F9C1E",
"O. c #98872E",
"+. c #958031",
"@. c #A89625",
"#. c #B39924",
"$. c #B39131",
"%. c #D18E1E",
"&. c #C9AD1D",
"*. c #EDA31F",
"=. c #D28C21",
"-. c #D9AD25",
";. c #ECA323",
":. c #F2A021",
">. c #A58566",
",. c #AE8F78",
"<. c #B6967A",
"1. c #BA977C",
"2. c #BB987B",
"3. c #432A83",
"4. c #532281",
"5. c #4B3C82",
"6. c #4D3489",
"7. c #6F288B",
"8. c #514583",
"9. c #5D548A",
"0. c #5B4493",
"q. c #655C8F",
"w. c #6A6582",
"e. c #6D668E",
"r. c #6F5BA1",
"t. c #725DA1",
"y. c #7D6BA9",
"u. c #847FA0",
"i. c #8B8581",
"p. c #898989",
"a. c #978C82",
"s. c #AB9F94",
"d. c #9DA5A8",
"f. c #A7A5A5",
"g. c #BAABA0",
"h. c #ABAFB8",
"j. c #BCBCBC",
"k. c #CCA789",
"l. c #CBA88A",
"z. c #DDB695",
"x. c #DAB798",
"c. c #E0B68D",
"v. c #CDB9AA",
"b. c #CDC1B8",
"n. c #FFCEA6",
"m. c #FBCFAB",
"M. c #FAD0A7",
"N. c #F9D0AC",
"B. c #A698C6",
"V. c #AFA1CB",
"C. c #C7BBDB",
"Z. c #BCC6C6",
"A. c #CEC8C4",
"S. c gray81",
"D. c #D8CCC2",
"F. c #CDCDD2",
"G. c #FFDCC3",
"H. c #EEDED3",
"J. c #FDEBDE",
"K. c #D2C9E3",
"L. c #E6DEF0",
"P. c #D5E1E4",
"I. c #E1E1E1",
"U. c #FEF4ED",
"Y. c #EDE7F5",
"T. c #FBF6FE",
"R. c white",
/* pixels */
"P P P P I I 6.P 3.3.P P P P P P P P P P P P P P L P L P P L P L L L L L L P L L ",
"P P P P I P C.V.Y.6.P P P P P P P P P P P L L P P L P L L P P P P L P L L L L P ",
"P I I P P P r.T.C.I P P P P I P P P P P P P P P P L P P P L L P P L P P P L P L ",
"P I P P P P B.B.K.0.P P P P P P P P P P P P P P L P L P L P P L P P P P L L L L ",
"I P P P P P 3.P P U P P P P P P P P P P P P P P L P P L P P L L L L 7.4.P L L L ",
"P P P P P P P P P P P P P P P P P P P P P P P P P P L P L P L P P L 7.U L L L L ",
"P P P P P P P P I P P P P P P P P P P P P P P P L P P L L P P L L L P L L L L L ",
"P I P P P P P P P I P P P P P P P P P P P P P P P L P L P P L P P L L L L P L L ",
"P I P P P P P P P P P P P P P P P P P P P P P P P L P L P P L L L L L L P L L L ",
"P P P P P P P P P P P P P P P P P P P P P L P P L P P P P L P L P L P L L L L L ",
"P P P P 3.P P P P P P P P I P P p.                  P.P P L L L L L P L L L L L ",
"P 3.P P P P P P P P P P P P P p.R - - - - - - - ; ; / S.T P P L P L L L L L L L ",
"P P P P P P P P P P P P P P Y # - > > > > > > > > > - p.S.P L P L L L L L L L L ",
"P P P P P P P P P P P P P P   ; > > > > > > E ........E a.I L L L L L P L L L L ",
"P P P P P P P P P P P P P P p d : : > : > > 1.n.m.m.m.1.p.L L P L L L L L L L L ",
"P P P P P P P P P P P P P 0.$ K.P.P.Z.: m.M.n.m.m.m.N.2.p.L L P P L L L L L L L ",
"P P I P P P P P P U p.p.p./   P.P.h.a.x.m.J.U.J.N.U.G.<.R i.p.u.P P L L L L L L ",
"P P P I P P P P P 8.4 2 2 <   d.D.s. .N.J.A.j.b.N.j.H.g.o 2 4 f.P P L L L L L L ",
"P P P P P P P P P p.v b n v   > z.l.,.N.R.p..  .N.  I.j.< n v  .P L L L L L L L ",
"P P P P P P P P P P   b n v   > z.N.N.N.R.p.  ! n.  I.j.< M . 9.5.L L L L L L L ",
"P P P P P P P P P P q.w.2 n b   z.N.N.N.m.U.T.U.n.R.G.2.    P P L L L L L L L L ",
"P P P P P P P P P P P 5.f.3 n v Q k.m.m.m.G.v.>.| G.<.G / I.P P L L L L L L L L ",
"P P P P P P P P P P P P p.v n b v ..l.N.N.l.1.2.2.2.W 5 ^ j.P P L L L L L L L L ",
"P P P P P P P P P P P / v n M b ) A ! x.x.! >.c.z.e M n v , F.5.U L L L L L L L ",
"P P P P P P P P P P   b M b b M -.$.g       - > > n b b b b   h.P P L L L L L L ",
"P I 6.t.3.P P P P   g g s g g   h j h s &.F h j j   p f f g f + 8.L L L L L L L ",
"P P u.L.3.P P P P   j a u t @   h J D #.X.@.' j j   + t a a h % e.P L L L L L L ",
"P P 6.y.I P P P P   { [ ] _     h j S +.o.O.H x j     ) [ ] } B e.L L L L L L L ",
"P P P P P P P P P   ;.;.;.%.    h j j J #.G x x j     ` ;.;.:.Z j.U L L L L L L ",
"P P P P P P P P P   ;.;.;.=.    h j j J x x x x j     ` ;.;.;.C j.L L L L L L L ",
"P P P P P P P P U   ;.;.;.%.    7 9 9 8 0 8 9 8 8     ` *.*.;.Z j.L P L K L L L ",
"P P P P P P P P ~ v Z ( ( C v   7 9 9 8 0 8 7 7 8   2 V Z Z Z N ^ h.U L L L L L ",
"P L P P L P P Y , M 2 6 5 6 2 a d l l d l l d d 8 i w 5 2 2 5 b 3 p.I P L L L L ",
"L P P L P P 9.f.1 m m b M w % j x x j j i h x j r k a w v n m n 6 / 8.P U K L L ",
"P L L P P L 8.z b m m b 1 % J j h x h g   u h x J 9 k g < n m b n c K P L L L L ",
"L P L P P P p.3 n n m , X X O s s s i   m , % s f s ; X X   M b b c   L L L L L ",
"P P P P L L p.5 v , , o # y y * ; @ q v b b 5 @ = = y y y & < , c v   L L L U L ",
"P L L P L P p., 1 . X & & & & * & + , b b M 3 . & & y & & & $ . , 1   L L L K L ",
"L P L L P P u.    X X & # X X @ & $ o v 6 v 1 . % t # X X X t # .     L L L L L ",
"P L L P P L >.                                                        L L L L L "
};
