/* XPM */
static char *_9bf3938ca5c4ae8a8033bc11854c491p8DN6y0RlDPBGmz2[] = {
/* columns rows colors chars-per-pixel */
"40 40 42 1 ",
"  c #331B74",
". c #331B75",
"X c #341B75",
"o c #341B77",
"O c #351B79",
"+ c #361B79",
"@ c #361B7A",
"# c #361B7B",
"$ c #371B7B",
"% c #371C7C",
"& c #3C1C79",
"* c #3B217D",
"= c #3D227D",
"- c #3E257F",
"; c #411E7A",
": c #40287E",
"> c #422883",
", c #442B83",
"< c #483084",
"1 c #493085",
"2 c #4A3188",
"3 c #4F3689",
"4 c #652688",
"5 c #782A8D",
"6 c #5A4392",
"7 c #6A559B",
"8 c #6F5BA1",
"9 c #725DA1",
"0 c #735FA1",
"q c #7B69A7",
"w c #7D6AA9",
"e c #9080B5",
"r c #A091C1",
"t c #AC9FCA",
"y c #AFA1CB",
"u c #C4B8D9",
"i c #C9BEDC",
"p c #D2C9E3",
"a c #E6DEF0",
"s c #EDE7F5",
"d c #FAF5FE",
"f c #FBF6FE",
/* pixels */
"$$$$$%2$=,$$$$##$$.#o$ooo$ooooo$+X+X+Xoo",
"$$$$$$uta6$o$o.$$.$$$$o$oo$o$oooX+X++ooo",
"$$$$#$8di#$#$$$$$o.$ooo$ooooo$o$+X++Xooo",
"$$$$#$yrp6o$$o$.o$#.$o$o$o$oooooXX;&oooo",
"$####$>#o=$o++++$oo$o$$oo+o+ooo$+X5;oooo",
"$###$$##$$#$++++o$$o$oo$+o+o$o+oX+4:oooX",
"$$###o#o$o$$$$++$++$o$ooo+o+o+o+oXoooooo",
"$$###$#$$$o$$$++o$$o$ooo+o+o+o+oo$XooooX",
"$$##$#$#$#$o++++$o$oo+o+o+o+o+o+o$XoooXo",
"$#$$o$o$o$#$++++o$o$+o+o+o+o+o+XXooooooX",
"$$$$$#$o$o$o++oo+$o+o+o+o+o+o+X+$Xoooooo",
"o#$$o$#$#$#$$o$$$o+o+o+o+o+oXX+XoooooXo ",
"##$#$o$#$o$o$o$oo$ooo+o+o+o++X+XoooooXoX",
"#$o$#$o$#$o$o$o$$oo$+o+o+o+XX++oooooooXo",
"$#$#$#$#$#$o$o$o$$o$o+o+o++++XXoooooXooX",
"o$o$o$o$o$o$o$o$oooo+o+o+oX+X+oooooXoXXo",
"$oo$++++$o$o$o$o$oo$o+o+o+X+XoooooXXoXoX",
"$$$$$+++o$o$o$o$oooo+o+o+X+X+XooooooXoXo",
"$oo$$$++$o$o$o$oo$o$o+o+o+X+oooooXXooXoX",
"$$$$$$++++o$o$+ooooo+o+++X+XoooooXoXXoXo",
"$$$o$o$o+o$o+$o+o$o+o+oXX++oooooXoXoXoXX",
"o$$o$oo$+$o$o+oooo+o+o+X+oXooooXoXoXoXoo",
"$$$oo$o$o$$o+o+oooo+o+o+XoooooXoXoXoXoXX",
"o$o$$o$o$o$oo+o+$o+o+o+ooooooooXoXoXoXoX",
"$o$$oo$o+o+o+o+o+o+XX+X+oooooXoX. $ $ XX",
"o$19=$o$o+o+o+o+o+o++X+oooooXoXo $ .o o ",
"$ows,$o$+o+o+o+o+o+XX+oooooXoXoX. . XXX ",
"o$3w-o$oo+o+o+o+o+X+oXooooXoXoXo $ $ X o",
"$$o$ooo$+o+o+o+o+X+XooooooXooXoXo   oo..",
"$ooo$oooo+o+o+X+X++oooooXXoXXoXoo o o...",
"ooo$o$o$+o+o+X+X+oXooooXoXXoXooX ooo  ..",
"$o+o+oooo+o+X+X+XoooooooXooXoXoX oo   ..",
"o$.$+o+o+o++X+X+oooooXXoXoXooXXXXoXX   .",
"$o$.o+o+o+X++XoXoooooooXoXoXXoXXX       ",
".$.$X+X++o+XoooooooXXoXooXXoo   o o     ",
"$.$.++++XoX+oooooXoooXoXXoXX  oo  o     ",
".$.$.$oo++oooooooXoXooo oXXXXX   o      ",
"$.$.o :e<ooooooXXoXo  ooXoo   o         ",
".$.$$$7f0XoooXoXoXoXoX  XXX oo  o       ",
"$.$. o-q:oooXoXoXoXoXo =XX o   o        "
};
