/* XPM */
static char *eac0f1b1ff994749e33b7f774bfb8cebLmzZc36fStlUqDk8[] = {
/* columns rows colors chars-per-pixel */
"40 40 70 1 ",
"  c #070F0C",
". c #050E0B",
"X c #060F0C",
"o c #060C0A",
"O c #050C0A",
"+ c #050B09",
"@ c #070D0B",
"# c #060D0B",
"$ c #050C09",
"% c #060D0A",
"& c #040A08",
"* c #040B09",
"= c #060E0B",
"- c #050D0A",
"; c #070E0C",
": c #070E0B",
"> c #040C0A",
", c #050B08",
"< c #050A09",
"1 c #070F0B",
"2 c #060B09",
"3 c #040D0A",
"4 c #050B0A",
"5 c #070D0A",
"6 c #07100D",
"7 c #060B0A",
"8 c #060C09",
"9 c #050D0B",
"0 c #060E0C",
"q c #06100C",
"w c #040E0B",
"e c #060F0B",
"r c #050E0A",
"t c #070F0D",
"y c #050F0B",
"u c #060C08",
"i c #060F0D",
"p c #050F0C",
"a c #040B08",
"s c #040C09",
"d c #070F0A",
"f c #07100E",
"g c #050A08",
"h c #050A07",
"j c #070C0A",
"k c #060E0A",
"l c #06100D",
"z c #08100C",
"x c #09110F",
"c c #08120F",
"v c #050C08",
"b c #070C0B",
"n c #050D08",
"m c #070C08",
"M c #060D09",
"N c #070E0D",
"B c #040B06",
"V c #050D09",
"C c #050E0C",
"Z c #040E0A",
"A c #080E0C",
"S c #040907",
"D c #050E09",
"F c #040D09",
"G c #040C08",
"H c #050C0B",
"J c #040A07",
"K c #040908",
"L c #060C0B",
"P c white",
/* pixels */
" .X.oooO+@o+o#$+o%Oo+&*++o$Oo#=#O-+$#;:X",
"X-%>O$Oo+.Oo##+++,o-O<+*+++Oo%-%O#@.-#@1",
"X--.OOOO2O#O3+<++4%++<o+<-+O-@#5$@=6XX=;",
"3Oo3%O+O2O--O++*+7+O7+o++-+o#X=;=#.6X.X ",
".--.#>O2OO-.oo+o+o8%O&$o++ooo#=9#X=6.=0q",
"..w.O-+$--%-+o+++oo7o+o+<7+o#0@o2#==.0=.",
"33-.#-O--%..O7+++@o+o+$oo%Oo%.;#-%#@=X=0",
".390.9O----.O$+++oo#-*&+oo$o#==#@5-#@=  ",
"e-3X-#-+*-oO-$<+,+o9%*-8+ooo#=%oo+o-rtX6",
".--y9-OoO$o+O*<+++o-O+O+$-o7o=%o+8ou%Xii",
".=-Xp--#O$+>3++++Oo++o+aso%O#X#9-ord@=6f",
"y=-39O+$o+O99+&++$#@O*gh$$$.y.-%=#%eXX.6",
"yy--..$<$OO-joa$oO..o+,,$%+o# =##o@.k-yl",
"w-+o=.O$+4++oo++-O$O-$$O$uoO#z%%@o$XXx6=",
"X.OO..-O+<$OO+g+38++$$g$o$r.-:oo.o$rqce$",
".=o29O-++&+O*++&oo+j#vsOoOwXX=bon80ke =$",
"-.+j.OO$++%-O+&&+o=9o+svu%%-X:-O$j-m=X6X",
"rysO-+-O$+ooO>a$-.q=.o$v3%M.l %%k#$%=XXN",
"o=-2-=oO*<Oo9ws8==X=+O,Ba#-.XX%%V#@..ei=",
"V=o7397*++OO.3$OOX#>&,$v$oO..90-o-M-i6X:",
".XO-X#oO++o=-O--O3.%o++OOb%..==-ov$#=X=:",
".C--.=%*+o+j+O.Z+-X9oOO+O#:..%O%.-%@; : ",
"3..+oOZO**OOo%aa--=#b-$---r==1@#k=k@#e6#",
"V-O-OO=O++o-#-g+-$=:#+g*vV.y0A=%8+#=;;=9",
"--ss-o=9++aOoOO+b%e.o8O$5M%#:o-M%O%=#@=X",
">.-3$O9O<O%O-sS&@#.w=:#%=-$#6@%=.@M%o-y ",
"o.3s$3-O++O9-+h&8-D=>>%7O%.=X-ro-O%%-ek:",
"$F9+%-O+$O+#Og,,$uV-O3G+$r#=e#7854--#:@#",
"-%oOo-9>+++oo+Oo2+9.s$+,o##XX##88ooo.#0=",
">#O*2=--O++o%$+$%9.$+,sOoo%.@=V#$8%=$e=9",
"3O$$so---+$o$$&+-X=oo$v$oo-p##ooV%#oM%@;",
"wOoO--rH-++oO+&+o#99++o-oo=;X=-uV%5# : #",
"o-o2+3OO+Jo7OO&gooO+$+,O=j;=.X:8o5=M@ :o",
"8s+++-=O+oooo+K+o2.O+,$--o#.-%X=9:;o@;=3",
"O$$O#.9O-#o#O+++#O%+s+-G$o#e##Ooo%=@0tko",
"#O+@9-3>O++-#o28.=#++$,8%-%y0%%j@@=Mr;%o",
"8,Ooor3#O+$+O+h$=#$+oO+L##:X ##oo0kke ==",
"*$$+O--F$+O+++gg@8V,+,+$o;9#0@o#%-%o9q.#",
"$$+>O%%O+<*++g&+oOo+O+,$o#=09o.%%%#@.XX-",
"*+&$8roo$ag++g,+%O%$sOoO$+=6;=9+-=o5k.;k"
};
