/* XPM */
static char *e746be9e769e4a35c2a9ad1b89a6c472j3HbwFKO0j1i8lPX[] = {
/* columns rows colors chars-per-pixel */
"40 40 118 2 ",
"   c #362D07",
".  c #3B3107",
"X  c #3F3408",
"o  c #362B29",
"O  c #3A2E38",
"+  c #3E3138",
"@  c #403509",
"#  c #453A08",
"$  c #483C09",
"%  c #473B13",
"&  c #403B19",
"*  c #40342A",
"=  c #772728",
"-  c #2D493D",
";  c #4D4209",
":  c #52440A",
">  c #57480B",
",  c #5B4B0B",
"<  c #604F0C",
"1  c #65530C",
"2  c #69570D",
"3  c #6D5A0D",
"4  c #725E0E",
"5  c #735E16",
"6  c #6D670B",
"7  c #74610D",
"8  c #7A650F",
"9  c #7E680E",
"0  c #7D6710",
"q  c #7F6910",
"w  c #52432A",
"e  c #504D28",
"r  c #352844",
"t  c #36274E",
"y  c #352654",
"u  c #35245C",
"i  c #351F6C",
"p  c #341B76",
"a  c #361B79",
"s  c #3C1C79",
"d  c #342069",
"f  c #3C227E",
"g  c #552957",
"h  c #65226E",
"j  c #72267E",
"k  c #2B4D43",
"l  c #305246",
"z  c #245952",
"x  c #126B68",
"c  c #5D6443",
"v  c #893715",
"b  c #AA3D1C",
"n  c #A81B3E",
"m  c #83252D",
"M  c #8D2431",
"N  c #A4233B",
"B  c #806B0F",
"V  c #836C10",
"C  c #8B7211",
"Z  c #917712",
"A  c #937A12",
"S  c #9A7F12",
"D  c #8C472C",
"F  c #B15739",
"G  c #8E7421",
"H  c #846C37",
"J  c #C24727",
"K  c #EB5332",
"L  c #BD1247",
"P  c #DE0454",
"I  c #348C09",
"U  c #2A9521",
"Y  c #43930B",
"T  c #37CE0D",
"R  c #33847B",
"E  c #9D8214",
"W  c #A28514",
"Q  c #A68A15",
"!  c #AB8D15",
"~  c #AF9116",
"^  c #B49516",
"/  c #BB9A17",
"(  c #BD9C18",
")  c #99AC0A",
"_  c #9DB309",
"`  c #A1B70A",
"'  c #A3BA0A",
"]  c #C19F18",
"[  c #C3A218",
"{  c #CFAB1A",
"}  c #A9C30A",
"|  c #B2CD0A",
" . c #C4E10B",
".. c #432A82",
"X. c #532281",
"o. c #493085",
"O. c #4D3489",
"+. c #7A2987",
"@. c #5B4493",
"#. c #6A559B",
"$. c #6F5BA1",
"%. c #735EA1",
"&. c #7B69A7",
"*. c #7D6BA9",
"=. c #8A289C",
"-. c #9919B2",
";. c #C51CE7",
":. c #2D8D86",
">. c #25B6B0",
",. c #9080B5",
"<. c #A091C1",
"1. c #AC9FCA",
"2. c #AFA1CB",
"3. c #C7BBDB",
"4. c #D2C9E3",
"5. c #E6DEF0",
"6. c #EDE7F5",
"7. c #FBF6FE",
/* pixels */
"a a a a a a O.a f ..a a a a a a a a a a a a a a p a a a a a p a a a a a a a p p ",
"a a a a a a 3.2.5.@.a a a a a a a a a a a a a a a p a p a a p a a a a a a a a p ",
"a a a f a a $.7.3.s a a a a a a a a a a p a p a a p a a p a a p a a a a p a p p ",
"s s a a a a 1.<.4.@.a s a a a f a a a a a a a a p a a p a p a a a a a a p p p a ",
"a a f a a a ..a a f a a a a p s a a p p p a a a p p a p a p a a p p X.X.p p p p ",
"a f a a a a a a a a a a a s i s r g O O + + O O u p a a p a a p p p X.a p p p p ",
"a a a a a a a a a a a a p r $ $ $ V , , V 8 3 0 $ d a p p a p p p p p p p p p p ",
"a a a a f a a a a a a a i : Z 5 V [ 9 9 [ ^ E ( 7 i a p a a p a p p p p p p p p ",
"a a a a a f a a f a a a i 1 S Z m N = < R & $ +.  u a a p p p p p p p p p p p p ",
"a a a a a a a a a a a a i b J D L P M c >.:.j ;.=.o p a a a p a p p p p p p p p ",
"a a f a a a a a a a a a * b K F N n = - x z h -.-.g d p a p p a p p p p p p p p ",
"a a a a a a a a a a a a * 3 v $ @ . : e k @ # g ; . O y p a p p p p p p p p p p ",
"a a a a a a a a f a a a * < 2 2 B C 8 8 V V B 4 , . 2 / y p p a p p p p p p p p ",
"a a a a a a a a a a a p G < B ] { / A A / { { ! 1 X > Q H d p p p p p p p p p p ",
"a f a a a a a f a a a p C > 4 Q / 3 ` ' 6 ] W B 2 Q   V S u a p p p p p p p p p ",
"a a a a a a a a a a a a A > $ < # _ } | ' # , V S W : $ I u a p p p p p p p p p ",
"a s a a a a a a a a a t 2 > # : ;  .` `  .; ; 1 3 1 # T T u p a p p p p p p p p ",
"a s a a a a a a a p a y Q ^ S E 6  .` `  .7 E E ^ ~ : Y U u p p p p p p p p p p ",
"a a a a a a a a a a a t > ^ ] E B ' | | ' B E [ { B 3 4 l p a p p p p p p p p p ",
"a a a a a a p a a a a a o : ! ( A 9 ) _ V Z ( ! < 3 ^ 1 u p a p p p p p p p p p ",
"a a a a a a a a a a a s o ; 4 E 7 [ B B [ 4 E 3 , X   y p p p p p p p p p p p p ",
"a a a a a a a a a a a p o V V 3 B 7 7 7 8 B 3 V V o p p p p p p p p p p p p p p ",
"a a a f a a a p a a a a o E ^ C A Q Q Q Q Z C / E o p p p p p p p p p p p p p p ",
"a a a a a a a a a a p u % 8 q V Q 3 W W 3 Q V 9 8 ; u p p p p p p p p p p p p p ",
"a a a a a a a a a a a t 1 E C 0 Q V 2 2 V ! 0 V E < t p p p p p p p p p p p p p ",
"a a O.%.f a a a a p p t 3 ( ( A ~ ! 3 6 ! ! Z ( ( 2 t p p p p p p p p p p p p p ",
"a a *.6...a a a a a p r ; # W [ W ~ E E ~ A Z E # ; r p p p p p p p p p p p p p ",
"a a O.*.f a a a p a d   # X : q Z ! ^ ^ ~ C , , X $   d p p p p p p p p d p p p ",
"a a a p a a a a a p d   0 V 1 C ~ < ^ ^ , ~ C 1 9 9   d p p p p p p p p p p p p ",
"a a a a a a a a p a d   ^ ( 8 9 5 8 ^ ~ 9 7 0 8 ( ^   d p p p p p p p p p p p d ",
"a p a p p a a a p a d   , , , , E ~ ^ ^ ~ W C 2 , ,   d p p p p p p p d p p p p ",
"a a a p a a p a p p d   ^ A 2 , Z B ~ ^ q Z 1 2 A ^   d p p p p p p p p p p p p ",
"a a p a a p a a a p p y 5 / ^ S 4 , Q Q , 4 E ^ ^ 5 y p p p i p p p p p p p p p ",
"a p p a p a a p p a a p y   V Q [ A C Z C [ Q C   y p p p p p p p p p i p p p p ",
"a a a p p a a a a a p p p d r w 3 ^ ^ ^ / 4 w r i i p p p p p p p p p p p p p p ",
"p p a a a p a p p p p a p a p d t         t d p p p p p p p p p p p p p d p p p ",
"a p p a p p a p p a p a p p a p p i i i d p p p p p p p p p p p p p d p p p p p ",
"a a a a a a ..,.o.p p p a p p p p p p p p p p p p p p i p p p p p p p p p p d p ",
"p a p p p a #.7.%.p a p a p p p p p p p p p p p p p p p p p p p p p p p p p p p ",
"a p p a a p f &...p p p p p p p p p p p p p p p p p p p p p i p p d p p d p p p "
};
