/* XPM */
static char *a968f8b63ed44f3082d200f716081292WWE6W2KxTC2sOVk0[] = {
/* columns rows colors chars-per-pixel */
"40 40 91 1 ",
"  c #362D07",
". c #3B3107",
"X c #3F3408",
"o c #362B29",
"O c #362B31",
"+ c #36293D",
"@ c #3A2E38",
"# c #3E3138",
"$ c #403509",
"% c #453A08",
"& c #483C09",
"* c #473B13",
"= c #4D4209",
"- c #52440A",
"; c #57480B",
": c #5B4B0B",
"> c #5B4D14",
", c #604F0C",
"< c #65530C",
"1 c #69570D",
"2 c #6D5B0E",
"3 c #725E0E",
"4 c #754F1B",
"5 c #675515",
"6 c #6D5B14",
"7 c #725413",
"8 c #7A5711",
"9 c #725B15",
"0 c #735318",
"q c #79551B",
"w c #7B5A19",
"e c #6E610D",
"r c #74620E",
"t c #7A650F",
"y c #766C0D",
"u c #7E680E",
"i c #676712",
"p c #7D6710",
"a c #52432A",
"s c #6F5A21",
"d c #6F582E",
"f c #352844",
"g c #36274E",
"h c #362849",
"j c #352654",
"k c #35245C",
"l c #351F6C",
"z c #341B76",
"x c #361B79",
"c c #3C1C79",
"v c #342069",
"b c #3C227E",
"n c #56295B",
"m c #305246",
"M c #806B0F",
"N c #836C10",
"B c #8B7211",
"V c #917712",
"C c #937A12",
"Z c #9A7F12",
"A c #8E7421",
"S c #846C37",
"D c #9D8214",
"F c #A28514",
"G c #A68A15",
"H c #AB8D15",
"J c #AF9116",
"K c #B49516",
"L c #BB9A17",
"P c #BD9C18",
"I c #C19F18",
"U c #C3A218",
"Y c #CFAB1A",
"T c #432A82",
"R c #532281",
"E c #4D3489",
"W c #5B4493",
"Q c #6A559B",
"! c #6F5BA1",
"~ c #735EA1",
"^ c #7B69A7",
"/ c #7D6BA9",
"( c #9080B5",
") c #A091C1",
"_ c #AFA1CB",
"` c #C4B8D9",
"' c #C9BEDC",
"] c #D2C9E3",
"[ c #E6DEF0",
"{ c #EDE7F5",
"} c #FBF6FE",
/* pixels */
"xxxxxxExbTxxxxxxxxxxxxxzxxzxxzxxxxxxxxzz",
"xxxxxx`_[Wxxcxxxxxxxxxzxxzxzzxxzxxxxxxxz",
"xxxbxx!}'xxxxxxxxxxxxxxxzzxxxzzxxxxxxxzz",
"ccxxxx_)]Wxxxxxxxxxxzxxxxxzxxxzxxxxxzzzx",
"xxbxxxTxxbxxxxxxxxzzzzxxxxxxzxxzzzRRzzzz",
"xxxxxxxxxxbxxxlcfn@@####jzzzxzxxzzRxzzzz",
"xbxxxxxxxxxxcf&&=u::Np6t%lzxxzzxzzzzzzzz",
"xxxxbxxxxxxxv-BrNUuuUKDLelxxzxxzzzzzzzzz",
"xxxxxxxxxxxxl1FB490:2>&d%kzxxzzxzzzzzzzz",
"xxxxxxbxxxxxl889q2962362soxxzxzzzzzzzzzz",
"xxbxxxxxxxxR582wqq026666snlxxzxzzzzzzzzz",
"xxxxxxxbxxxx227-X -56$&6-$Ogzzxzzzzzzzzz",
"xxxxxxxxxxxx5,12NNttMMM3:.1Pjzzzzzzzzzzz",
"xxxxxxxxxxxlA,pLYLCCLYYH<X;GSlczzzzzzzzz",
"xxxxxxxbxxxlB:7GLe23rPFM1G MZkzzzzzzzzzz",
"xxbxxxxxxxxxV;-:%y32y%,MZF-&6kzxzzzzzzzz",
"xxxxxxxxxcxg5;%-=2rrr==<1<%22kxzzzzzzzzz",
"xxcxxxxxxxxgHKZDeyyerrDDKJ-eikzxzzzzzzzz",
"xxxxxxxzxxxg;KIDMye2yNDUYN2rmzzxzzzzzzzz",
"xxxxxxxxxxxzo-JLCuyypVPH,2J<kxzzzzzzzzzz",
"xxxxxxxxxzxxo=3ZrUNMU3Z3:. jzzzzzzzzzzzz",
"xbxxxxxxxxxxoMN2ur3rrN2NNozxzzxzzzzzzzzz",
"xxxxxxxxxxxxoFPBCGGGGVBLDozzzzzzzzzzzzzz",
"xxxxxxxxxxxj*ttNG2FF2GNpt=jzzzzzzzzzzzzz",
"xxxxxxxxzxzg<DNtHN11NHpND>gzzzzzzzzzzzzz",
"xxE~bxxxxxxg1PICHHe2HHVPI1hxzzzzzzzzzzzz",
"xx/{Txxxxzx+=%FUGHDDJCVD%=+zzzzzzzzzzzvz",
"xxE/bxxxxxv %$-uCHKKJB::X% vzzzzzzzzzzzz",
"xxxxxxxxxzv pN<BJ:KK:JB<Nu vzzzzzzzzzzzz",
"xxzxxxxxxzv KPyu9uKJtrutLK vzzzzzzzzzzvz",
"zxxzxzxxxxv :;::DJKKJFN<;, vzzzzzzzzzzzz",
"zxxzxxxxxxv KC1:VNKJNC11CK vzzzzzvzzzzzz",
"xxxzzxxzxxzj9LKZ3;GG:3DKK9jzzzzlzzzzzvzz",
"xzzxxxzxxzzxj BGUCCBVUGB jzxzzzzzzzzzzzz",
"xxxxxzzxzzzzzlfa2KKKK3afvlzzzzzlzzzzzzzz",
"zzxzzxxzzxxzzzzlg    hvzzzzzzzzzzzzlzzzz",
"xxxzxxzxzxzxzzxzzllllzzzzzzlzzzzzzzzvzzv",
"xzzxxzT(Tzzzxzzzzzzzzzzzzzzzzzzzzzzzzzzz",
"zxxxzzQ}^zxzxzzzzzzzzzzzzzzzzzzzzzvzzzzz",
"xzzzxxb^bzzzzzzzzzzzzzzzzzzzzzzzzzzzzvzz"
};
