/* XPM */
static char *_ee0dc26ed484e6eb4bfc4330e5500bbAkYLbk6eeSG1QpKT[] = {
/* columns rows colors chars-per-pixel */
"40 40 223 2 ",
"   c #020906",
".  c #030B0B",
"X  c #041503",
"o  c #051C05",
"O  c #031209",
"+  c #060616",
"@  c #091A17",
"#  c #062C06",
"$  c #062708",
"%  c #063404",
"&  c #0A3406",
"*  c #0A3309",
"=  c #0C3B0A",
"-  c #173E0E",
";  c #092915",
":  c #092A15",
">  c #102C11",
",  c #1B3B17",
"<  c #0D0727",
"1  c #11072F",
"2  c #100B2E",
"3  c #0E1A26",
"4  c #12142F",
"5  c #120B32",
"6  c #160B3B",
"7  c #190B3E",
"8  c #131433",
"9  c #141A31",
"0  c #171639",
"q  c #19143E",
"w  c #17262A",
"e  c #16232C",
"r  c #1C3725",
"t  c #182533",
"y  c #223E2D",
"u  c #094705",
"i  c #14470E",
"p  c #0B5205",
"a  c #0C5906",
"s  c #175407",
"d  c #1D4414",
"f  c #164B14",
"g  c #1B4E14",
"h  c #185011",
"j  c #22480A",
"k  c #2B540B",
"l  c #214C15",
"z  c #275717",
"x  c #325E18",
"c  c #0C6403",
"v  c #0B6A01",
"b  c #16650C",
"n  c #0E7203",
"m  c #0A7802",
"M  c #127404",
"N  c #187608",
"B  c #1E6E13",
"V  c #25680C",
"C  c #257A0B",
"Z  c #2A6518",
"A  c #366A15",
"S  c #387816",
"D  c #26482B",
"F  c #2B5C24",
"G  c #214232",
"H  c #264B35",
"J  c #335B33",
"K  c #2F6525",
"L  c #336B23",
"P  c #32672B",
"I  c #367424",
"U  c #387620",
"Y  c #3A7B24",
"T  c #437F16",
"R  c #42792C",
"E  c #427D3A",
"W  c #1C0D45",
"Q  c #1F0E4B",
"!  c #1D1344",
"~  c #1E1848",
"^  c #200E4E",
"/  c #210F51",
"(  c #231254",
")  c #26135A",
"_  c #28155D",
"`  c #291B5D",
"'  c #202944",
"]  c #27334C",
"[  c #2B1565",
"{  c #2D1669",
"}  c #2F186B",
"|  c #30176D",
" . c #31196D",
".. c #341B75",
"X. c #361B79",
"o. c #3C1C79",
"O. c #2C2062",
"+. c #3C247B",
"@. c #411E7A",
"#. c #40287E",
"$. c #467B45",
"%. c #1C8608",
"&. c #1D9C01",
"*. c #1E8618",
"=. c #2A8609",
"-. c #2D8B08",
";. c #2A8D0A",
":. c #38970C",
">. c #288211",
",. c #388A17",
"<. c #38961A",
"1. c #25A309",
"2. c #34A70B",
"3. c #2BB608",
"4. c #2CBC09",
"5. c #35B30C",
"6. c #31BD0B",
"7. c #3BBE0D",
"8. c #37AA17",
"9. c #2FBC11",
"0. c #38B714",
"q. c #388526",
"w. c #359030",
"e. c #3BB624",
"r. c #40980F",
"t. c #478916",
"y. c #489417",
"u. c #439D13",
"i. c #519D19",
"p. c #40AB0E",
"a. c #45BD0D",
"s. c #4CA916",
"d. c #56A719",
"f. c #5BAB1C",
"g. c #46BA15",
"h. c #55B718",
"j. c #5BB31B",
"k. c #64B71E",
"l. c #63BA1E",
"z. c #4B8F2D",
"x. c #4D9423",
"c. c #46952D",
"v. c #539D29",
"b. c #468835",
"n. c #4B9A36",
"m. c #4EA021",
"M. c #57AA2B",
"N. c #4ABC25",
"B. c #57BB2A",
"V. c #4EA936",
"C. c #55AC37",
"Z. c #49BB32",
"A. c #55B33B",
"S. c #57B838",
"D. c #65BD21",
"F. c #64B828",
"G. c #60AE30",
"H. c #6ABE34",
"J. c #66B938",
"K. c #41C10F",
"L. c #44C113",
"P. c #4CC114",
"I. c #4DC11D",
"U. c #53C316",
"Y. c #54C31B",
"T. c #5BC41A",
"R. c #64C41D",
"E. c #6AC31F",
"W. c #68C91E",
"Q. c #4DC42E",
"!. c #5AC329",
"~. c #5CC835",
"^. c #63C322",
"/. c #6BC527",
"(. c #6CC52A",
"). c #70CB21",
"_. c #6CC834",
"`. c #70C731",
"'. c #4C8648",
"]. c #4D9648",
"[. c #55964A",
"{. c #599C4C",
"}. c #4F8851",
"|. c #528C53",
" X c #539251",
".X c #47A341",
"XX c #57A546",
"oX c #5BB042",
"OX c #61AD43",
"+X c #6BB567",
"@X c #77BE73",
"#X c #5BC947",
"$X c #72CF4F",
"%X c #67C955",
"&X c #7ACF73",
"*X c #82D75D",
"=X c #81D962",
"-X c #86DD73",
";X c #92E37A",
":X c #432A82",
">X c #532281",
",X c #4B3287",
"<X c #6F288B",
"1X c #58428F",
"2X c #6A559B",
"3X c #6F5BA1",
"4X c #735EA1",
"5X c #7C6AA8",
"6X c #9080B5",
"7X c #91DA8B",
"8X c #8FE483",
"9X c #98E989",
"0X c #A3EE9B",
"qX c #A5F29B",
"wX c #AAF6A3",
"eX c #9F90C0",
"rX c #AC9FCA",
"tX c #AFA1CB",
"yX c #C7BBDB",
"uX c #CDC4DE",
"iX c #E6DEF0",
"pX c #EDE7F5",
"aX c #FBF6FE",
/* pixels */
"X.X.X.o.o.X.,XX.:X:XX.X.X.X.X.X.X.X.X.X.....X.X.X...X...X.X.X...X.....X...X.X...",
"X.X.X.X.X.X.yXtXiX1XX.X.X.X.X.X.X.X.X.X...+...X...X...X.X...X.X...X.X...........",
"X.o.X.X.X.X.3XaXuXo.X.X.X.X.X.X. .) ( ) ` ( ( ) [ | ....X.X...X.....X...X.....X.",
"X.o.X.X.X.X.rXeXuX,X .....| ..| [ ' y H H H G 0 ( [ | ........X.X...o.X...X.X...",
"X.X.X.X.X.X.:XX. .} _ _ _ ` ` ` ] D Z I q.Y Z , 6 / ) ) [ ..........<X>X....X...",
"X.X.X.X.X.X.X.X.[ ^ 4 e e t e t H I z.n.C.C.x.l @ 3 2 < Q } ....X...<Xo...X.....",
"X.X.X.X.X.X.X.X.[ 7 > l z g z l P E ].{.oXJ.M.V u % o   1 ( { | X.X.X...X...X...",
"X.X.X.X.X.X.X.X.[ t d L I I I I E '.|.{.oXH.B.=.c u $ O + 1 ( } ..X...........X.",
"X.X.X.X.X.X.} O.] H z I q.z.n.n.n.|.{.OXJ.(.k.-.c u * $ O + / } ........X.......",
"X.X.X.X...} _ ~ G K I q.c.V.C.A.XX|.{.J.H.).j.-.v p u = & @ ^ { ....X.....X.....",
"X.X.X.X...[ W t f Z q.c.V.A.A.XX{. X{.OXH.(.j.-.n v a a u @ ^ { ......X.........",
"X.:XX.X.{ W < ; u M ,.V.Z.A.oXXX X X X{.OX`.k.:.N N n n c ; Q [ ....X...X...X...",
"X.X.X.X.X.W O # p n <.A.A.A.oX.X.X.X.X.XS.(.^.s.:.C M m v ; 5 ( [  .X...........",
"X.X.X.X.| 1 O % p n <.S.S.S.Z.N.e.e.e.0.h.R.W.R.d.,.C M v = @ 5 ^ } ..X.......+.",
"X.X.X.X.{ 1 O % p n <.S.!.Q.Q.Y.U.h.g.8.2.s.h.U.j.s.u.=.N h d w ~ } ............",
"X.X.X.X.{ 1 $ = a M u.^.!.I.P.T.R.R.g.:.;.;.:.a.h.j.d.u.>.L l r ~ } ..........X.",
"X.X.X.X.{ 8 % p v M u.R.T.L.g.U.T.j.s.,.N *.;.9.!.!.R.h.<.S x r ~  .............",
"X.X.X.X.{ 3 u c M =.u.R.T.P.7.a.5.:.<.q.w.w.w.Q.~._._.^.f.q.F r ! [ ............",
"X.X.X.X.{ 9 u b =.r.s.T.T.U.a.5.&.*.].+X@X@X&X&X-X-X=X$XB.Y z r 0 ( [ ..X.......",
"X.X.X.X.{ 4 * V t.j.T.P.U.T.h.:.%.w.+X7X0XwXqXwXqXqX8X$X8.q.Z d @ 1 ^ ........X.",
"X.X.X.X.{ 4 i A y.D.E.T.U.U.a.2.&.1.+X-X9X9XqXwXqX9X-X#X8.,.K z d : W ..........",
"X.X.X.X.{ 4 j L x.F.(.^.!.I.a.3.3.9.S.$X*X*X;XqX9X-X$XQ.8.q.Y U x , W ..X.......",
"X.X.X.X.{ 9 l I z.G.J.J.Z.g.6.6.9.9.0.B.D.`.*X8X-X$X!.L.0.v.v.y.T z ! ..........",
"X.X.X.X.} 4 l L E [.{.{.A.e.9.6.3.4.8.:.i.k._.%X#XQ.K.7.g.l.D.F.d.A ! X.........",
"X.X...X.{ 8 - F R $.|.|.[.e.9.6.4.4.1.;.,.i.h.P.L.7.K.L.T.).).W.f.A ! ..........",
"X.X.,X5X| 5 @ r J $.|.|.].e.9.6.6.9.1.%.C S y.l.U.L.P.T.W.).).W.d.A ! ....+.....",
"X.X.5XpX#.( 6 w D J '.XXA.B.Y.g.U.U.p.;.M b ,.h.P.K.P.W.).).E.d.t.k ! ......} ..",
"X.X.,X5X@.{ ) 0 w G R G.(.^.R.R.^.^.s.:.N s >.0.K.7.P.W.).D.d.t.z r Q ..........",
"X.X.X.X.....[ ( q 3 A f.f.k.k./.(.H.m.,.B b >.9.4.7.P.W.E.f.t.x r ! ( ..........",
"..X.X.X...X...[ ( 8 j S t.t.i.D._.XXb.w.B b >.3.4.7.P.R.k.T k r ~ ) { ..........",
"X.X.X.....X.....[ 6 ; p f Z t.D.J. X'.w.b.t.u.a.K.K.a.d.t.j < 7 ) } ............",
"X.X.X...X.......[ 6 # i f Z t.D.J.|.}.|.n.G.l.R.U.a.:.T k > ^ _ O. .............",
"X.X...X.X.X....._ 7 o = i z S s.M.$.$.$.b.v.d.d.s.:.N s e ! ) } ................",
"..X...X...X.X. .[ W @ $ = g z S I P P P I S T ,.S V s & 6 _ } ............[ ....",
"X.X.X.....X.X...} ( 6 @ & i i h g g f g g h h g i & # X W } ....................",
"....X.X.X.X..... .{ ( < $ ; = * ; # * * * : # : @ + + + ! } .. ....... .........",
"X.X.X.X...X.X.X.....[ 1 X $ 3 0 1 + X o o   + 6 W 6 W 6 / } .................. .",
"X.....X.X...#.6X,X..[ 1   < q _ ) < . . . . W [ [ [ { { } X.....................",
"X.X.X.....X.2XaX4X..} Q W Q (  .[ ^ W W ! W ( | ......} ........ ..... ..... ...",
"......X.X...#.5X:X....} [ [ } ....{ [ { [ { } .................................."
};
