/* XPM */
static char *_9d902f235bc4444883ee19b674626ddNYK7e3eTQZXze7jv[] = {
/* columns rows colors chars-per-pixel */
"40 40 159 2 ",
"   c #000000",
".  c #02020C",
"X  c #0D0D0E",
"o  c #0F100F",
"O  c #060B19",
"+  c #080E1E",
"@  c #0F1110",
"#  c #121413",
"$  c #191A1D",
"%  c #0C0426",
"&  c #0C1426",
"*  c #0E162B",
"=  c #140737",
"-  c #131635",
";  c #17163D",
":  c #2A2625",
">  c #443705",
",  c #463906",
"<  c #4B3D07",
"1  c #533607",
"2  c #743607",
"3  c #493D26",
"4  c #7E233F",
"5  c #5B4A17",
"6  c #64500D",
"7  c #665214",
"8  c #574925",
"9  c #5A4B26",
"0  c #5E4D35",
"q  c #557923",
"w  c #1A1944",
"e  c #1E1B4C",
"r  c #251F57",
"t  c #251158",
"y  c #251F58",
"u  c #193A52",
"i  c #252059",
"p  c #352E55",
"a  c #392E5B",
"s  c #3F395E",
"d  c #341B76",
"f  c #361B7A",
"g  c #381E7B",
"h  c #2D2265",
"j  c #2D2468",
"k  c #332674",
"l  c #3A237B",
"z  c #3E2A7C",
"x  c #253A72",
"c  c #403A5E",
"v  c #411E7A",
"b  c #443E65",
"n  c #453D6D",
"m  c #412E7E",
"M  c #443678",
"N  c #45337E",
"B  c #194664",
"V  c #5B5B5B",
"C  c #6F5B44",
"Z  c #6C5B5F",
"A  c #47416A",
"S  c #4C466E",
"D  c #4E457A",
"F  c #554E78",
"G  c #695465",
"H  c #676578",
"J  c #717171",
"K  c #73727C",
"L  c gray49",
"P  c #846A14",
"I  c #816B1B",
"U  c #917719",
"Y  c #967A1A",
"T  c #9A7F19",
"R  c #AA761B",
"E  c #866E22",
"W  c #926E27",
"Q  c #967A22",
"!  c #967B2A",
"~  c #876F3B",
"^  c #907B3F",
"/  c #C65823",
"(  c #D36C25",
")  c #ED7826",
"_  c #917B6F",
"`  c #847071",
"'  c #85871F",
"]  c #95811A",
"[  c #9F831A",
"{  c #A3851B",
"}  c #A7891B",
"|  c #B0911D",
" . c #9E843A",
".. c #A48624",
"X. c #A5892C",
"o. c #B99729",
"O. c #BA982C",
"+. c #BC9A38",
"@. c #CFA826",
"#. c #C7A328",
"$. c #CFA828",
"%. c #E4BD2D",
"&. c #A7874A",
"*. c #9E8968",
"=. c #8C8372",
"-. c #C3A273",
";. c #532281",
":. c #463580",
">. c #473880",
",. c #4B3C82",
"<. c #652688",
"1. c #782A8D",
"2. c #1D70A0",
"3. c #4F4183",
"4. c #534685",
"5. c #564A86",
"6. c #5E548A",
"7. c #615988",
"8. c #645B8D",
"9. c #695F99",
"0. c #786A8B",
"q. c #7A788D",
"w. c #6D6494",
"e. c #6E649D",
"r. c #64699E",
"t. c #736C95",
"y. c #777197",
"u. c #7D7993",
"i. c #7B759A",
"p. c #756BA7",
"a. c #766AA8",
"s. c #786DAC",
"d. c #7E71B4",
"f. c #837DA2",
"g. c #867DB4",
"h. c #857ABF",
"j. c #887DC2",
"k. c #2089C4",
"l. c #858198",
"z. c #B69A9C",
"x. c #9B99AC",
"c. c #9992BB",
"v. c #A692BD",
"b. c gray64",
"n. c #ACABB6",
"m. c #8C80C4",
"M. c #8D81CB",
"N. c #9485C3",
"B. c #9084CE",
"V. c #9285D1",
"C. c #9689D7",
"Z. c #978ADA",
"A. c #B3ACD8",
"S. c #C9C3E8",
"D. c #DAD7E6",
"F. c #E0DCF2",
"G. c #EDEBF3",
"H. c #EEECF8",
"J. c white",
/* pixels */
"f f f g f f g f f f f f f f                   K i.l f f f d f f d f d f d d d f ",
"f f g f f f f f f f f f g 0.j.j.j.j.j.m.j.j.j.g.q.z f f d f f d d f d d d f d d ",
"f f g f f f f f f f g g x.s.Z.Z.Z.Z.Z.Z.Z.Z.Z.M.e.m l d d f d f f d d d d d d d ",
"f f g f f f f f f f f u.s.Z.Z.Z.Z.Z.Z.Z.Z.Z.Z.Z.B.. N d f d f d f f f d f d f d ",
";.f f f f f f f f f   j.Z.Z.Z.Z.Z.Z.Z.Z.Z.Z.Z.B.a.  m f d d f d d f 1.;.d d f d ",
"f f f f f f f f f f   j.Z.Z.Z.Z.Z.Z.Z.C.Z.Z.j.d.Z.t f f f f f d d f <.v d d d d ",
"f f f f f f f f f f   j.Z.V.d.Z.6.S S S Z.Z.C.h.S % g d f f d d d f f d f d d d ",
"f f f f f f f f f f   j.Z.C.j.j.s.F u 2.e.B.j.r.2.% 4.f f d f f f f d d f f f f ",
"f f f f f f f f f f . j.Z.Z.V.d.M.e.B k.$ j.e.B k.  l g f 8.4.:.6.d f ,.g f g d ",
"f f f f f f f f f f   j.Z.V.a.Z.d.F $ $ $ j.e.$ $   l g :.,.,.K =     = g f f g ",
"f f f f f f f f f f   j.Z.Z.Z.a.V.Z.Z.Z.Z.Z.Z.Z.Z.  g z >.6.= ( / 4 x ) 2 z f f ",
"f f f f f f f f f f   j.Z.Z.Z.V.Z.S.H.H.H.H.H.F.Z.  ,.,.4.D q R R W ^ R 1 l f f ",
"f f f f f f g g f z   8.h.Z.Z.Z.Z.A.D.J.J.J.J.H.Z.  :.7.f   ' ] T } @.T , m f f ",
"f f f f f f g g A A A 0 0.j.Z.Z.Z.j.c.H.G.H.G.D.Z.  b l.x.  [ Y T | %.{ < l f f ",
"f f f f f f q.e.Z.Z.Z.-.Q n Z.Z.Z.j.d.Z.a.B.j.d.Z.  j.e.    U [ T U { U > m f f ",
"f f f f f O j.Z.Z.Z.8 : ! O.    j.j.d.Z.a.V.j.w.  8 m.Z.j.    E T { U { < m f f ",
"f f f g ` j.Z.Z.Z.Z.8 a c E o.o.Z s a b p b s p h 8 j.Z.j.  I T T Y { Y > z f f ",
"f g g g r.Z.Z.Z.Z.Z.8 c r 3 ! ! Q ` 0.Q O O O ; k 8 j.Z.N.7 U [ T Y { U > l f f ",
"f f g n Z.Z.Z.Z.Z.Z.9 a r ; & & O.z.v.$.& & - e j 8 c.C.N._ _  .T Y { U > l d f ",
"f g g n Z.Z.Z.Z.Z.Z.5 : i h & & O.z.v.$.& & r j & 8 j.C.Z.Z.Z.*.T Y { U > g f f ",
"f f g n Z.Z.Z.Z.Z.Z.  & * w k & O.$.$.$.* j i * &   j.Z.Z.Z.Z.Z.Z.Z.Z.  A.g f f ",
"f f g n Z.Z.Z.Z.j.n   . + - w h G &.+.G j e - & . z 6.s.Z.Z.Z.Z.Z.j.b t.0.f f f ",
"f f l n Z.Z.Z.Z.B.e.    O & & y y C ~ y y - & +   N l x.e.e.p.9.e.f.n.f d f f f ",
"f f g b Z.Z.Z.Z.Z.Z.    O * & & & & & & - * * &   :.l N H L ` q.L b.d f f f f f ",
"f f d b Z.Z.Z.Z.Z.Z.    O & & & & & & & * & & +   g g f d d d d d d f f d f f f ",
"f g l M Z.Z.Z.Z.Z.Z.=   O & & * & & & & * & & &   g f d d d d d d d d d d d d d ",
"f f l M Z.Z.Z.Z.h.b t.J E O.O.O.9 & & & O.O.O.X.  f l f d d d d d d d d d d d d ",
"f f g 7.e.e.e.e.f.f.y.K Q @.@.@.X.! ! ! $.$.@.o.  f g g d d d d d d d d d d d d ",
"f f f y.q.L L L l.g N D I o.@.@.O.O.o.O.@.@.#.X.  z l f f d f d d d d d d d d d ",
"f f f d d d d g g N   X o 7 @.@.7 X X X $.@.Q X X   l g f f f f f d d d d d d d ",
"f f f f d d f f f   o X o X X X X X X X X X X X X X   N :.z f f f f d d h d d d ",
"f f f f d f f f M o.o.5 o X X X o X X X X X o X X O.o.*.q.z g f f d d d d d d d ",
"f f f f f f f z 6 @.@.7 o o X X X X . X X X X o # @.@.Y L 8.g f f f f f d d d d ",
"f f f f f g g z P @.O.5 @ o o o X V J X X o o o # o.#...=.y.5.g g f f d d d d d ",
"f f f f N     Q @.$.# # # # # X   8.y.= X # # # # # O.@.o.    g f f f d d d d h ",
"f f f f   # # # # # # # # # #   l f f 8.  o # # # # # # # # #   f g f d d d d d ",
"f f d H o # # # # # # # # # #   3.f f z   @ # # # # # # # # # # g f f d d d d d ",
"f f g . # # # # # # # # # # #   N f f f   @ # # # # # # # # # # X g d d d d d d ",
"f f f . o @ @ @ # o @ @ @ @ #   m f f f   X @ @ # # X @ # @ @ @ . g d d d h d d ",
"f f f                           l f f g                           l g d d d d d "
};
