/* XPM */
static char *_92e5ca6c5cb4ae8e2c7f67e9fb08f4509AeYLxJdpSHutWY[] = {
/* columns rows colors chars-per-pixel */
"40 40 95 2 ",
"   c #242424",
".  c #282827",
"X  c #272629",
"o  c #28272B",
"O  c #2A2A2B",
"+  c #2E2D33",
"@  c #302F34",
"#  c #312F38",
"$  c #2F3033",
"%  c #333336",
"&  c #35353B",
"*  c #38373F",
"=  c #36383C",
"-  c #3A3B3D",
";  c #363340",
":  c #393645",
">  c #363943",
",  c #3B3C44",
"<  c #3D3B4A",
"1  c #403F47",
"2  c #413E4C",
"3  c #433F51",
"4  c #3E4044",
"5  c #3F414A",
"6  c #3F4150",
"7  c #42444C",
"8  c #47494B",
"9  c #454254",
"0  c #484554",
"q  c #454954",
"w  c #4A4C56",
"e  c #474558",
"r  c #484659",
"t  c #474B5A",
"y  c #4B4C5B",
"u  c #514E5E",
"i  c #4C505D",
"p  c #51555C",
"a  c #565A5E",
"s  c #5A5A5A",
"d  c #4D4E60",
"f  c #534F61",
"g  c #4D5262",
"h  c #545364",
"j  c #595666",
"k  c #555A65",
"l  c #595B65",
"z  c #555668",
"x  c #595768",
"c  c #565A6B",
"v  c #5A5D6C",
"b  c #595F71",
"n  c #615E6E",
"m  c #5C6066",
"M  c #5B616F",
"N  c #5A6173",
"B  c #5F6678",
"V  c #646466",
"C  c #65636A",
"Z  c #6B696F",
"A  c #626574",
"S  c #696676",
"D  c #646876",
"F  c #636779",
"G  c #646B7B",
"H  c #696C7B",
"J  c #6B717E",
"K  c #767676",
"L  c #676E80",
"P  c #686F80",
"I  c #6D7484",
"U  c #717785",
"Y  c #737986",
"T  c #717789",
"R  c #757C8C",
"E  c #797E8C",
"W  c #767E91",
"Q  c #7A818D",
"!  c #778092",
"~  c #7B8394",
"^  c #7C8698",
"/  c #848484",
"(  c gray56",
")  c #808591",
"_  c #848B97",
"`  c #838B9A",
"'  c #87909F",
"]  c #8B919E",
"[  c #929292",
"{  c #9B9B9B",
"}  c #8790A0",
"|  c #8C94A3",
" . c #9197A2",
".. c #9299A5",
"X. c #A2A2A2",
/* pixels */
"{ ( [ [ ( [ [ [ { { [ { [ { { { { { { { [ [ { { { { { { [ { { { { { { { X.X.X./ ",
"( ]  ...|  . ...m - - a ) ) ) ) Q ) ) Q ) ) ) ) ) Q ) ~ ) s - p ' ' _ _ _ H Z ( ",
"[  ...| | | ) ) D 4 7 J Q Q ~ Q Y J J J Q ~ Q Q Q J J J J m 4 w ` ^ ^ T U v C [ ",
"{  ...| ' ^ I I J w i Q Q Y Y Y D v m M U Y Y Y J M M M M M 8 w ! T R B M w C [ ",
"{  .| ) E H I I H 8 p E U M N M v l j v v M v v v v M M M i , i W b b b N y C [ ",
"{  .~ H S S P H v 1 p Y M M M M M v j j j M v j j l M M M t , w W N N b b w C [ ",
"{  .E S S P P v j 1 p Y M M M M M M v v M M M x l v v M y 0 , w R N b z h r C [ ",
"{  .) H x n x x j 1 p Y M M M M p 0 w w w 0 k M M v y w 0 0 , 7 B b z b b d C ( ",
"{ | Y n j j j j x , 7 D v N M h 0 0 0 0 0 0 y w y w 0 0 0 0 1 , M M b b g 6 C [ ",
"X. .U j j j x j j 1 % 7 h y y w 0 0 0 0 0 0 0 0 0 0 0 0 0 0 * + 9 y d d e < C [ ",
"X.Q C u u w u y w & . @ 7 1 , 7 1 2 1 2 1 1 5 q 0 0 0 0 0 7 & O + < < < < : m [ ",
"X.- < w w w w w w w w 7 . O 4 7 7 7 7 7 7 7 $ > 7 2 2 3 2 % O % w w w w ; X s [ ",
"X.8 I ~ ^ ~ ^ ^ ^ ~ ^ I + % B G H G G G B G t O $ > , 5 , - , i ^ ^ W ~ k . s [ ",
"X.) ^ ~ ! ~ ^ ~ ~ G b b c % B G G N i g g t t 4 k ~ ~ W W ~ ~ ~ ~ W B N N q s ( ",
"X._ Y A b G ~ ^ P c c z 9 * N G v d t w t g 6 & k ! ~ G B W ~ W B b b M N t n ( ",
"{ _ I v b N L G v v z d 3 * A M y w 0 t g y 6 & k ! L N z F L G b c N b h , s [ ",
"X.` G f h N b y r f t 9 9 & A h y y t 6 t 6 < & z W N c h z c b c d d d r : s [ ",
"{ ` D e t z z 9 3 9 9 9 2 & v g y t q : q < : # y I M c z f d c g 9 9 9 3 ; s [ ",
"X._ D 3 3 9 9 9 9 9 9 9 < + q t d 6 : : : : : $ 5 c b c c d 9 9 9 9 9 9 3 ; a ( ",
"X._ D 9 9 9 0 7 9 9 9 < . . . & > : : : : : + . . + 9 9 3 9 9 3 9 9 9 q 9 : s [ ",
"X.8 * * % . O = , , * - , * & = > , - - 4 = * & - % O O & * = & $ % & $ % @ s ( ",
"X.) ) ) H . % ~ ` ` ` ` ` ` ` ` ` ` ` ` ` ` ` ` ` R $ . I T T I T T T U E A C [ ",
"X._ Q U N , I } | | ` W E E } | ^ ! ! R Y Y E E Y A $ N R L F F F G ~ I I v C [ ",
"X._ Y N w 7 ` | ~ ~ Y I P H R E U H A A n H P H b p % T A c k c h h D F A p C ( ",
"X._ U j 2 7 Q _ T G D H P S n n A A j j x D G N j p & H z h g i w r f x v w C [ ",
"X._ H 0 1 = D G H n j v S j j j f u u p u u u d f 0 O g g z t 3 2 3 r 3 3 < C [ ",
"X.) H 7 . % h j x j j j j j j j 2 O O % & & & & & + . < 3 3 3 2 < 3 9 5 < < n ( ",
"{ 8 % O . . @ & % % & & & & % @ O . , R ~ E W W E I O + O O O + $ O O O + o s [ ",
"{ - L W ~ W ~ ~ W ^ W W ! ! W ~ h p ~ ~ ^ ~ ^ ! ^ ~ ! > . . y G G G B B q   s [ ",
"[ Y W ^ ~ ~ ^ ^ W ^ ^ W L G L L q k ~ ^ ~ ~ ~ ^ W L G z + i N G B c G M w : s [ ",
"[ ` ` W I T I W ^ T T P c c c b 6 k ~ ^ T ~ ~ R B N M g $ l G G c g M g y < s [ ",
"[ ` ^ T b c b T R F b c h z f c 5 k ~ ~ N T R B z M M 0 % M G N i t t t t > s [ ",
"[ _ _ I c j j j f b b x z c r 3 * k ~ R b h z j z z z e $ l M w y w r w 3 + s [ ",
"[ _ T b b f f f c b b b c 3 r 3 , k R N h f c b b z e 3 % v v w t t r t < + l [ ",
"{ _ H j c b r e e z c r d 3 3 3 ; k W b b r z h r e 3 9 % c b r < < y < < @ s { ",
"[ ` I b j r 3 9 3 r r 3 3 3 3 d & 0 F b r 9 r e 3 e 3 e O t t < : : < < : # s [ ",
"{ m h y y 9 3 9 3 3 3 3 3 3 3 < + # 7 d 3 3 3 3 3 e 3 ; O : < : : : : : # o s [ ",
"X.= @ * ; ; ; ; : ; ; ; : ; ; +     o ; : ; : ; ; : ; o   + + + + + + + o   s [ ",
"X.V s s s s s s s s s s s s j s s s s s s s s s s s s s s s s s a s s s a s K [ ",
"( { [ [ [ [ [ [ [ [ [ [ ( ( ( ( ( [ ( ( [ ( [ [ ( [ ( ( ( ( ( [ ( ( ( [ ( ( ( K "
};
